<?xml version="1.0" encoding="UTF-8"?>
<svg id="Layer_2" data-name="Layer 2" xmlns="http://www.w3.org/2000/svg" viewBox="0 0 256.21 37.74">
  <defs>
    <style>
      .cls-1 {
        fill: none;
        stroke: #000;
        stroke-miterlimit: 10;
        stroke-width: 4.25px;
      }
    </style>
  </defs>
  <g id="Layer_1-2" data-name="Layer 1">
    <g>
      <circle class="cls-1" cx="18.67" cy="18.96" r="6.59"/>
      <circle cx="29.98" cy="6.88" r="5.25"/>
      <circle class="cls-1" cx="18.67" cy="19.06" r="16.55"/>
    </g>
    <g>
      <path d="M79.9,34.12c-.61,.4-1.43,.86-2.47,1.36-1.04,.5-2.26,.92-3.65,1.26-1.39,.33-2.93,.5-4.61,.5-2.79-.03-5.32-.54-7.59-1.51s-4.2-2.3-5.8-3.98-2.81-3.62-3.65-5.82c-.84-2.2-1.26-4.54-1.26-7.03,0-2.72,.44-5.23,1.31-7.54s2.12-4.3,3.76-6c1.63-1.7,3.54-3.01,5.75-3.96,2.2-.94,4.61-1.41,7.23-1.41,2.18,0,4.17,.29,5.95,.88s3.31,1.27,4.59,2.04l-1.97,4.64c-1.01-.71-2.24-1.36-3.68-1.96-1.45-.61-3.02-.91-4.74-.91s-3.46,.35-5.04,1.06-2.97,1.7-4.18,2.97c-1.21,1.28-2.16,2.76-2.85,4.44s-1.03,3.51-1.03,5.49,.31,3.77,.93,5.47c.62,1.7,1.51,3.18,2.67,4.44,1.16,1.26,2.56,2.24,4.21,2.95s3.49,1.06,5.55,1.06c1.85,0,3.49-.29,4.94-.86,1.45-.57,2.64-1.21,3.58-1.92l2.07,4.34Z"/>
      <path d="M88.12,.4h4.89V36.85h-4.89V.4Z"/>
      <path d="M129.2,36.85l-9.13-14.68c1.34-.66,2.45-1.48,3.3-2.48,.96-1.13,1.65-2.38,2.07-3.76,.42-1.38,.63-2.79,.63-4.24,0-1.81-.33-3.43-.98-4.84-.66-1.41-1.56-2.6-2.72-3.55-1.16-.96-2.52-1.68-4.08-2.17-1.56-.49-3.27-.73-5.12-.73h-9.68V36.85h4.89v-13.41h5.39c.4,0,.78-.02,1.15-.04l8.62,13.45h5.65Zm-15.53-18.15h-5.29V5.09h5.64c1.28,0,2.36,.22,3.25,.65,.89,.44,1.61,1,2.17,1.69,.56,.69,.96,1.42,1.21,2.19,.25,.77,.38,1.53,.38,2.27s-.12,1.5-.35,2.27c-.23,.77-.62,1.5-1.16,2.19s-1.29,1.25-2.24,1.69c-.96,.44-2.16,.65-3.6,.65Z"/>
      <path d="M162.67,34.12c-.61,.4-1.43,.86-2.47,1.36-1.04,.5-2.26,.92-3.65,1.26-1.39,.33-2.93,.5-4.61,.5-2.79-.03-5.32-.54-7.59-1.51s-4.2-2.3-5.8-3.98-2.81-3.62-3.65-5.82c-.84-2.2-1.26-4.54-1.26-7.03,0-2.72,.44-5.23,1.31-7.54s2.12-4.3,3.76-6c1.63-1.7,3.54-3.01,5.75-3.96,2.2-.94,4.61-1.41,7.23-1.41,2.18,0,4.17,.29,5.95,.88s3.31,1.27,4.59,2.04l-1.97,4.64c-1.01-.71-2.24-1.36-3.68-1.96-1.45-.61-3.02-.91-4.74-.91s-3.46,.35-5.04,1.06-2.97,1.7-4.18,2.97c-1.21,1.28-2.16,2.76-2.85,4.44s-1.03,3.51-1.03,5.49,.31,3.77,.93,5.47c.62,1.7,1.51,3.18,2.67,4.44,1.16,1.26,2.56,2.24,4.21,2.95s3.49,1.06,5.55,1.06c1.85,0,3.49-.29,4.94-.86,1.45-.57,2.64-1.21,3.58-1.92l2.07,4.34Z"/>
      <path d="M170.88,.4h4.89v31.75h18.5v4.69h-23.39V.4Z"/>
      <path d="M202.23,.4h23.69V5.09h-18.8v11.09h16.78v4.74h-16.78v11.24h19.51v4.69h-24.4V.4Z"/>
      <path d="M253.95,6.91c-1.24-.64-2.6-1.19-4.08-1.66-1.48-.47-2.92-.71-4.34-.71-1.95,0-3.5,.45-4.66,1.36s-1.74,2.12-1.74,3.63c0,1.14,.38,2.11,1.13,2.9s1.73,1.47,2.92,2.04c1.19,.57,2.46,1.11,3.81,1.61,1.11,.4,2.22,.88,3.33,1.44s2.11,1.23,3,2.04,1.6,1.8,2.12,2.97c.52,1.18,.78,2.62,.78,4.34,0,1.95-.48,3.71-1.44,5.29s-2.33,2.82-4.11,3.73c-1.78,.91-3.92,1.36-6.4,1.36-1.58,0-3.1-.18-4.56-.53-1.46-.35-2.82-.83-4.06-1.44s-2.35-1.23-3.33-1.86l2.17-3.83c.81,.57,1.73,1.12,2.77,1.64,1.04,.52,2.13,.93,3.28,1.23,1.14,.3,2.25,.45,3.33,.45,1.18,0,2.32-.2,3.43-.61,1.11-.4,2.03-1.04,2.77-1.92,.74-.87,1.11-2.03,1.11-3.48,0-1.21-.33-2.23-.98-3.07-.65-.84-1.51-1.55-2.57-2.14s-2.21-1.12-3.45-1.59c-1.18-.4-2.34-.87-3.5-1.41-1.16-.54-2.24-1.18-3.23-1.94-.99-.75-1.8-1.69-2.42-2.8-.62-1.11-.93-2.45-.93-4.03,0-1.92,.46-3.59,1.39-5.01s2.19-2.55,3.81-3.38c1.61-.82,3.46-1.27,5.54-1.34,2.35,0,4.43,.29,6.22,.86s3.39,1.26,4.76,2.07l-1.87,3.78Z"/>
    </g>
  </g>
</svg>